<svg width="28" height="16" viewBox="0 0 28 16" fill="none" xmlns="http://www.w3.org/2000/svg">
<path d="M27 9C27.5523 9 28 8.55228 28 8C28 7.44772 27.5523 7 27 7V9ZM0.292894 7.29289C-0.0976295 7.68342 -0.0976295 8.31658 0.292894 8.70711L6.65686 15.0711C7.04738 15.4616 7.68055 15.4616 8.07107 15.0711C8.46159 14.6805 8.46159 14.0474 8.07107 13.6569L2.41422 8L8.07107 2.34315C8.46159 1.95262 8.46159 1.31946 8.07107 0.928932C7.68055 0.538408 7.04738 0.538408 6.65686 0.928932L0.292894 7.29289ZM27 7L1 7V9L27 9V7Z" fill="black"/>
</svg>
